<?xml version="1.0" standalone="no"?>
<!DOCTYPE svg PUBLIC "-//W3C//DTD SVG 20010904//EN"
 "http://www.w3.org/TR/2001/REC-SVG-20010904/DTD/svg10.dtd">
<svg version="1.0" xmlns="http://www.w3.org/2000/svg"
 width="531.000000pt" height="531.000000pt" viewBox="0 0 531.000000 531.000000"
 preserveAspectRatio="xMidYMid meet">
<metadata>
Created by potrace 1.14, written by Peter Selinger 2001-2017
</metadata>
<g transform="translate(0.000000,531.000000) scale(0.100000,-0.100000)"
fill="#000000" stroke="none">
<path d="M1345 3289 c-94 -23 -201 -61 -379 -136 -138 -58 -280 -108 -333
-118 -241 -42 -426 -15 -587 84 l-35 22 19 -56 c40 -117 129 -269 207 -353 33
-36 46 -43 98 -51 126 -19 283 -7 410 31 61 19 238 92 360 148 162 76 229 93
365 93 166 1 367 -56 557 -159 46 -24 85 -44 88 -44 3 0 4 84 3 188 l-3 187
-80 39 c-132 63 -189 85 -310 117 -113 30 -274 33 -380 8z"/>
<path d="M2357 3136 c-66 -44 -84 -135 -39 -195 10 -14 56 -49 102 -77 102
-63 121 -90 99 -145 -6 -15 -21 -31 -33 -37 -32 -14 -105 -8 -145 13 -35 17
-50 10 -51 -23 0 -40 165 -61 228 -28 64 33 91 120 57 186 -17 32 -60 68 -120
98 -73 37 -108 80 -100 123 3 12 10 28 17 35 21 19 74 33 89 23 8 -5 29 -9 47
-9 25 0 32 4 32 19 0 41 -129 53 -183 17z"/>
<path d="M2845 3147 c-66 -16 -137 -74 -173 -142 -22 -44 -25 -163 -4 -216 40
-102 152 -170 271 -163 93 6 181 52 161 84 -8 13 -14 12 -46 -5 -21 -11 -40
-20 -43 -20 -3 -1 -15 -4 -26 -8 -32 -11 -85 -15 -90 -7 -3 4 -16 8 -29 8 -14
0 -31 6 -39 13 -8 8 -23 22 -33 31 -48 43 -56 67 -59 173 -1 56 3 78 22 115
23 44 74 88 110 95 10 2 20 4 23 5 27 11 143 -12 168 -33 10 -8 16 -7 23 4 17
27 9 36 -48 55 -66 21 -129 25 -188 11z"/>
<path d="M3301 3133 c-6 -16 -33 -91 -60 -168 -27 -77 -65 -184 -84 -237 l-35
-98 23 2 c19 2 28 15 50 73 47 121 35 111 130 110 47 -1 86 -3 88 -6 2 -2 17
-42 34 -89 30 -85 30 -85 67 -87 40 -1 43 5 21 47 -9 17 -15 32 -15 35 -1 6
-1 7 -60 170 -29 77 -58 154 -65 170 -7 17 -18 47 -25 68 -15 47 -51 52 -69
10z m53 -158 c5 -19 17 -50 27 -67 21 -40 12 -48 -56 -48 -36 0 -65 4 -65 8 0
7 39 128 56 172 4 10 10 4 21 -20 8 -19 16 -39 17 -45z"/>
<path d="M4297 3153 c-4 -4 -43 -6 -85 -6 l-78 2 -1 -259 -1 -258 128 2 c114
2 134 5 175 26 93 48 143 140 136 255 -6 128 -101 219 -236 229 -11 0 -23 4
-26 9 -3 4 -9 4 -12 0z m33 -56 c107 -12 162 -77 162 -194 1 -132 -49 -205
-148 -219 -91 -13 -134 -11 -138 5 -6 20 -6 381 0 401 4 16 28 17 124 7z"/>
<path d="M4966 3140 c-106 -38 -167 -124 -172 -244 -3 -62 0 -76 28 -129 18
-32 46 -70 64 -83 66 -51 161 -70 257 -51 42 9 97 46 97 67 0 22 -16 35 -25
20 -8 -13 -71 -41 -105 -47 -114 -20 -204 38 -229 147 -30 136 37 278 134 284
14 0 25 4 25 7 0 13 119 -10 148 -29 20 -13 25 -13 33 -1 17 27 9 37 -43 55
-69 24 -151 25 -212 4z"/>
<path d="M3615 3142 c-7 -4 -11 -95 -10 -257 0 -243 1 -250 20 -250 19 0 20 8
25 199 l5 199 80 -98 c44 -55 96 -118 115 -140 73 -86 115 -138 123 -151 9
-16 43 -19 52 -4 5 8 9 390 5 497 0 14 -38 13 -43 -2 -2 -5 -3 -97 -2 -203 l0
-194 -25 29 c-14 16 -41 48 -60 72 -19 24 -40 48 -45 55 -6 6 -28 34 -50 61
-22 28 -42 52 -45 55 -3 3 -28 32 -55 65 -49 59 -65 75 -75 75 -3 0 -10 -4
-15 -8z"/>
<path d="M4655 3144 c-8 -3 -12 -369 -6 -496 1 -19 36 -25 57 -10 7 5 10 89
10 260 l0 252 -26 -1 c-14 0 -29 -2 -35 -5z"/>
<path d="M1459 2826 c-2 -2 -24 -6 -49 -9 -43 -5 -96 -18 -150 -37 -41 -14
-232 -91 -249 -100 -28 -16 -144 -58 -216 -79 -110 -32 -176 -43 -288 -45 -42
0 -78 -5 -80 -11 -6 -26 329 -248 375 -248 14 0 106 38 205 85 243 118 364
153 505 150 108 -3 206 -35 333 -108 102 -59 250 -134 264 -134 7 0 11 54 11
163 l0 162 -163 74 c-208 95 -318 131 -417 136 -43 2 -79 2 -81 1z"/>
<path d="M2900 2530 c-135 -25 -233 -158 -216 -292 9 -71 57 -153 111 -189
140 -95 331 -47 407 101 35 69 33 177 -6 248 -16 28 -32 52 -35 52 -3 0 -17
10 -31 23 -54 49 -148 73 -230 57z m169 -73 c14 -12 33 -30 43 -40 23 -26 41
-119 35 -183 -5 -53 -41 -144 -57 -144 -5 0 -16 -7 -24 -16 -40 -40 -156 -40
-216 0 -100 66 -117 269 -31 364 16 17 36 32 44 32 7 0 17 3 21 7 4 4 19 9 34
11 15 2 28 5 30 6 9 10 100 -18 121 -37z"/>
<path d="M3505 2531 c-61 -11 -112 -39 -155 -88 -145 -166 -40 -425 181 -441
150 -11 272 82 297 228 14 76 -20 173 -80 230 -61 59 -153 86 -243 71z m143
-61 c2 -6 10 -10 17 -10 21 0 62 -59 75 -109 13 -48 12 -143 -2 -181 -13 -37
-57 -98 -76 -105 -35 -14 -69 -19 -120 -18 -107 1 -174 82 -177 217 -1 39 2
77 8 84 5 6 7 12 4 12 -8 0 14 40 38 71 25 31 57 50 99 56 17 3 32 6 34 8 7 6
97 -16 100 -25z"/>
<path d="M4439 2530 c-48 -14 -78 -41 -92 -83 -25 -75 -2 -130 76 -179 124
-77 132 -84 143 -118 14 -43 3 -71 -36 -88 -43 -19 -80 -18 -133 6 -46 21 -47
21 -57 1 -6 -11 -8 -24 -5 -29 8 -13 102 -40 142 -40 48 0 110 28 133 60 25
35 32 97 15 136 -12 29 -67 89 -83 89 -12 1 -75 37 -90 51 -7 8 -17 14 -22 14
-14 0 -32 58 -26 87 11 46 69 61 149 39 24 -7 27 -6 27 17 0 14 -7 28 -16 31
-29 11 -98 15 -125 6z"/>
<path d="M2290 2269 l0 -259 33 0 34 0 0 98 c1 154 -2 141 39 138 58 -6 87
-37 144 -153 22 -45 46 -83 53 -86 7 -2 24 0 39 5 l27 10 -24 39 c-14 21 -25
41 -25 45 0 3 -10 20 -22 37 -13 18 -21 34 -19 36 7 7 -61 71 -70 65 -5 -3 -9
-1 -9 5 0 5 13 18 30 27 41 25 64 76 57 131 -9 83 -61 115 -194 118 l-93 3 0
-259z m184 187 c36 -28 42 -81 15 -125 -11 -18 -24 -29 -29 -26 -6 3 -10 1
-10 -6 0 -11 -75 -8 -87 5 -3 3 -6 42 -7 87 -1 71 1 82 18 88 28 11 70 1 100
-23z"/>
<path d="M3880 2505 c-4 -11 -6 -23 -4 -27 2 -3 38 -5 79 -4 41 2 76 0 76 -3
1 -3 3 -109 4 -236 l2 -230 29 3 c16 2 31 6 33 8 2 2 5 106 5 231 l1 227 73 0
c71 1 91 10 92 41 0 7 -64 11 -191 11 -183 -1 -192 -1 -199 -21z"/>
<path d="M1407 2394 c-2 -2 -21 -6 -43 -10 -63 -9 -183 -52 -269 -96 -44 -23
-90 -46 -102 -52 -13 -6 -23 -14 -23 -17 0 -7 193 -72 320 -108 113 -31 250
-61 355 -77 119 -18 252 -31 357 -33 l119 -2 -3 87 -3 88 -95 37 c-52 20 -113
47 -135 59 -126 72 -167 91 -235 110 -52 14 -100 20 -157 19 -45 -1 -84 -3
-86 -5z"/>
</g>
</svg>
